<?xml version="1.0" standalone="yes"?>

<svg version="1.1" viewBox="0.0 0.0 100.0 100.0" fill="none" stroke="none" stroke-linecap="square" stroke-miterlimit="10" xmlns="http://www.w3.org/2000/svg" xmlns:xlink="http://www.w3.org/1999/xlink"><clipPath id="p.0"><path d="m0 0l100.0 0l0 100.0l-100.0 0l0 -100.0z" clip-rule="nonzero"></path></clipPath><g clip-path="url(#p.0)"><path fill="#000000" fill-opacity="0.0" d="m0 0l100.0 0l0 100.0l-100.0 0z" fill-rule="nonzero"></path><path fill="#ff0000" d="m17.149607 50.792652l0 0c0 -5.435875 4.5547085 -9.842522 10.173227 -9.842522l0 0c2.6981087 0 5.2857094 1.0369759 7.1935577 2.8828087c1.9078522 1.845829 2.9796715 4.349312 2.9796715 6.959713l0 0c0 5.435871 -4.5547104 9.842518 -10.173229 9.842518l0 0c-5.618519 0 -10.173227 -4.4066467 -10.173227 -9.842518z" fill-rule="nonzero"></path><path stroke="#ff0000" stroke-width="2.0" stroke-linejoin="round" stroke-linecap="butt" d="m17.149607 50.792652l0 0c0 -5.435875 4.5547085 -9.842522 10.173227 -9.842522l0 0c2.6981087 0 5.2857094 1.0369759 7.1935577 2.8828087c1.9078522 1.845829 2.9796715 4.349312 2.9796715 6.959713l0 0c0 5.435871 -4.5547104 9.842518 -10.173229 9.842518l0 0c-5.618519 0 -10.173227 -4.4066467 -10.173227 -9.842518z" fill-rule="nonzero"></path><path fill="#000000" fill-opacity="0.0" d="m37.496063 50.792652l11.90551 -0.031497955" fill-rule="nonzero"></path><path stroke="#ff0000" stroke-width="2.0" stroke-linejoin="round" stroke-linecap="butt" d="m37.496063 50.792652l11.90551 -0.031497955" fill-rule="nonzero"></path><path fill="#000000" fill-opacity="0.0" d="m48.409447 51.257217l5.417324 -12.661415" fill-rule="nonzero"></path><path stroke="#ff0000" stroke-width="2.0" stroke-linejoin="round" stroke-linecap="butt" d="m48.409447 51.257217l5.417324 -12.661415" fill-rule="nonzero"></path><path fill="#000000" fill-opacity="0.0" d="m53.82677 39.02887l3.8110237 23.496063" fill-rule="nonzero"></path><path stroke="#ff0000" stroke-width="2.0" stroke-linejoin="round" stroke-linecap="butt" d="m53.82677 39.02887l3.8110237 23.496063" fill-rule="nonzero"></path><path fill="#000000" fill-opacity="0.0" d="m57.75853 61.96063l5.0393715 -16.818897" fill-rule="nonzero"></path><path stroke="#ff0000" stroke-width="2.0" stroke-linejoin="round" stroke-linecap="butt" d="m57.75853 61.96063l5.0393715 -16.818897" fill-rule="nonzero"></path><path fill="#000000" fill-opacity="0.0" d="m62.92651 45.721786l2.582676 10.70866" fill-rule="nonzero"></path><path stroke="#ff0000" stroke-width="2.0" stroke-linejoin="round" stroke-linecap="butt" d="m62.92651 45.721786l2.582676 10.70866" fill-rule="nonzero"></path><path fill="#000000" fill-opacity="0.0" d="m65.509186 55.553806l6.015747 -18.07874" fill-rule="nonzero"></path><path stroke="#ff0000" stroke-width="2.0" stroke-linejoin="round" stroke-linecap="butt" d="m65.509186 55.553806l6.015747 -18.07874" fill-rule="nonzero"></path><path fill="#000000" fill-opacity="0.0" d="m71.538055 38.09186l4.062996 14.645672" fill-rule="nonzero"></path><path stroke="#ff0000" stroke-width="2.0" stroke-linejoin="round" stroke-linecap="butt" d="m71.538055 38.09186l4.062996 14.645672" fill-rule="nonzero"></path><path fill="#000000" fill-opacity="0.0" d="m74.72441 52.0l8.125984 0.12598419" fill-rule="nonzero"></path><path stroke="#ff0000" stroke-width="2.0" stroke-linejoin="round" stroke-linecap="butt" d="m74.72441 52.0l8.125984 0.12598419" fill-rule="nonzero"></path></g></svg>

