<?xml version="1.0" standalone="yes"?>

<svg version="1.1" viewBox="0.0 0.0 100.0 100.0" fill="none" stroke="none" stroke-linecap="square" stroke-miterlimit="10" xmlns="http://www.w3.org/2000/svg" xmlns:xlink="http://www.w3.org/1999/xlink"><clipPath id="p.0"><path d="m0 0l100.0 0l0 100.0l-100.0 0l0 -100.0z" clip-rule="nonzero"></path></clipPath><g clip-path="url(#p.0)"><path fill="#000000" fill-opacity="0.0" d="m0 0l100.0 0l0 100.0l-100.0 0z" fill-rule="nonzero"></path><path fill="#ff0000" d="m25.795275 52.131233l0 0c0 -4.2791176 3.398407 -7.7480316 7.5905514 -7.7480316l0 0c2.0131416 0 3.9438248 0.81630707 5.3673325 2.2693481c1.4235039 1.4530373 2.2232208 3.4237785 2.2232208 5.4786835l0 0c0 4.2791214 -3.398407 7.7480316 -7.5905533 7.7480316l0 0c-4.1921444 0 -7.5905514 -3.4689102 -7.5905514 -7.7480316z" fill-rule="nonzero"></path><path stroke="#ff0000" stroke-width="2.0" stroke-linejoin="round" stroke-linecap="butt" d="m25.795275 52.131233l0 0c0 -4.2791176 3.398407 -7.7480316 7.5905514 -7.7480316l0 0c2.0131416 0 3.9438248 0.81630707 5.3673325 2.2693481c1.4235039 1.4530373 2.2232208 3.4237785 2.2232208 5.4786835l0 0c0 4.2791214 -3.398407 7.7480316 -7.5905533 7.7480316l0 0c-4.1921444 0 -7.5905514 -3.4689102 -7.5905514 -7.7480316z" fill-rule="nonzero"></path><path fill="#000000" fill-opacity="0.0" d="m37.11286 52.24147l12.031494 -0.22047424" fill-rule="nonzero"></path><path stroke="#ff0000" stroke-width="2.0" stroke-linejoin="round" stroke-linecap="butt" d="m37.11286 52.24147l12.031494 -0.22047424" fill-rule="nonzero"></path><path fill="#000000" fill-opacity="0.0" d="m48.375328 52.58005l5.448818 -13.984249" fill-rule="nonzero"></path><path stroke="#ff0000" stroke-width="2.0" stroke-linejoin="round" stroke-linecap="butt" d="m48.375328 52.58005l5.448818 -13.984249" fill-rule="nonzero"></path><path fill="#000000" fill-opacity="0.0" d="m53.82677 39.02887l3.8110237 23.496067" fill-rule="nonzero"></path><path stroke="#ff0000" stroke-width="2.0" stroke-linejoin="round" stroke-linecap="butt" d="m53.82677 39.02887l3.8110237 23.496067" fill-rule="nonzero"></path><path fill="#000000" fill-opacity="0.0" d="m57.75853 61.96063l5.0393715 -16.818897" fill-rule="nonzero"></path><path stroke="#ff0000" stroke-width="2.0" stroke-linejoin="round" stroke-linecap="butt" d="m57.75853 61.96063l5.0393715 -16.818897" fill-rule="nonzero"></path><path fill="#000000" fill-opacity="0.0" d="m62.92651 45.721786l2.582676 10.70866" fill-rule="nonzero"></path><path stroke="#ff0000" stroke-width="2.0" stroke-linejoin="round" stroke-linecap="butt" d="m62.92651 45.721786l2.582676 10.70866" fill-rule="nonzero"></path><path fill="#000000" fill-opacity="0.0" d="m65.509186 55.553806l6.015747 -18.07874" fill-rule="nonzero"></path><path stroke="#ff0000" stroke-width="2.0" stroke-linejoin="round" stroke-linecap="butt" d="m65.509186 55.553806l6.015747 -18.07874" fill-rule="nonzero"></path><path fill="#000000" fill-opacity="0.0" d="m71.538055 38.09186l4.062996 14.645672" fill-rule="nonzero"></path><path stroke="#ff0000" stroke-width="2.0" stroke-linejoin="round" stroke-linecap="butt" d="m71.538055 38.09186l4.062996 14.645672" fill-rule="nonzero"></path><path fill="#000000" fill-opacity="0.0" d="m74.72441 52.0l8.125984 0.12598419" fill-rule="nonzero"></path><path stroke="#ff0000" stroke-width="2.0" stroke-linejoin="round" stroke-linecap="butt" d="m74.72441 52.0l8.125984 0.12598419" fill-rule="nonzero"></path></g></svg>

